<svg width="33" height="32" viewBox="0 0 33 32" fill="none" xmlns="http://www.w3.org/2000/svg">
<path d="M16.0721 0C13.971 0 11.8904 0.424127 9.94921 1.24817C8.008 2.0722 6.24417 3.28001 4.75844 4.80264C1.75785 7.87772 0.0721436 12.0484 0.0721436 16.3972C0.0721436 23.6448 4.66414 29.7938 11.0161 31.9746C11.8161 32.1058 12.0721 31.5975 12.0721 31.1547V28.3836C7.64014 29.3674 6.69614 26.1864 6.69614 26.1864C5.96014 24.2843 4.92014 23.776 4.92014 23.776C3.46414 22.7594 5.03214 22.7922 5.03214 22.7922C6.63214 22.9069 7.48014 24.4811 7.48014 24.4811C8.87214 26.9734 11.2241 26.2356 12.1361 25.842C12.2801 24.7762 12.6961 24.0547 13.1441 23.6448C9.59214 23.2349 5.86414 21.8247 5.86414 15.5774C5.86414 13.7573 6.47214 12.2979 7.51214 11.1337C7.35214 10.7238 6.79214 9.01848 7.67214 6.80485C7.67214 6.80485 9.01614 6.36213 12.0721 8.47737C13.3361 8.11663 14.7121 7.93626 16.0721 7.93626C17.4321 7.93626 18.8081 8.11663 20.0721 8.47737C23.1281 6.36213 24.4721 6.80485 24.4721 6.80485C25.3521 9.01848 24.7921 10.7238 24.6321 11.1337C25.6721 12.2979 26.2801 13.7573 26.2801 15.5774C26.2801 21.8411 22.5361 23.2185 18.9681 23.6284C19.5441 24.1367 20.0721 25.137 20.0721 26.6619V31.1547C20.0721 31.5975 20.3281 32.1222 21.1441 31.9746C27.4961 29.7774 32.0721 23.6448 32.0721 16.3972C32.0721 14.2439 31.6583 12.1117 30.8542 10.1223C30.0501 8.13288 28.8716 6.32526 27.3859 4.80264C25.9001 3.28001 24.1363 2.0722 22.1951 1.24817C20.2539 0.424127 18.1733 0 16.0721 0Z" fill="#285A0F"/>
</svg>
