<svg width="33" height="32" viewBox="0 0 33 32" fill="none" xmlns="http://www.w3.org/2000/svg">
<path d="M17.7173 0.00196857C18.8848 -0.00251164 20.0523 0.00922255 21.2195 0.0371675L21.5299 0.0483671C21.8883 0.0611666 22.2419 0.077166 22.6691 0.0963654C24.3714 0.176363 25.533 0.445154 26.5522 0.84034C27.6081 1.24673 28.4977 1.79711 29.3873 2.68668C30.2006 3.48602 30.8301 4.45293 31.232 5.52018C31.6272 6.53935 31.896 7.70251 31.976 9.40485C31.9952 9.83043 32.0112 10.1856 32.024 10.544L32.0336 10.8544C32.062 12.0211 32.0743 13.1881 32.0704 14.3551L32.072 15.5486V17.6446C32.0759 18.8121 32.0637 19.9796 32.0352 21.1468L32.0256 21.4572C32.0128 21.8156 31.9968 22.1692 31.9776 22.5964C31.8976 24.2987 31.6256 25.4603 31.232 26.4795C30.8315 27.5478 30.2018 28.5156 29.3873 29.3146C28.5872 30.1279 27.6198 30.7573 26.5522 31.1593C25.533 31.5545 24.3714 31.8233 22.6691 31.9033C22.2419 31.9225 21.8883 31.9385 21.5299 31.9513L21.2195 31.9609C20.0523 31.9893 18.8848 32.0016 17.7173 31.9977L16.5237 31.9993H14.4294C13.2618 32.0032 12.0943 31.991 10.9271 31.9625L10.6167 31.9529C10.2369 31.9391 9.85717 31.9231 9.47755 31.9049C7.7752 31.8249 6.61364 31.5529 5.59288 31.1593C4.52521 30.7583 3.55813 30.1287 2.75938 29.3146C1.94508 28.5151 1.31498 27.5475 0.913038 26.4795C0.517852 25.4603 0.249061 24.2987 0.169063 22.5964C0.151245 22.2168 0.135245 21.837 0.121065 21.4572L0.113066 21.1468C0.0835683 19.9797 0.0702339 18.8121 0.0730667 17.6446V14.3551C0.0686013 13.1881 0.0803355 12.0211 0.108266 10.8544L0.119465 10.544C0.132265 10.1856 0.148264 9.83043 0.167464 9.40485C0.247461 7.70091 0.516252 6.54095 0.911438 5.52018C1.31362 4.45241 1.94495 3.48576 2.76098 2.68828C3.55918 1.87351 4.52565 1.24284 5.59288 0.84034C6.61364 0.445154 7.7736 0.176363 9.47755 0.0963654L10.6167 0.0483671L10.9271 0.0403675C12.0938 0.010885 13.2608 -0.00244928 14.4278 0.000368736L17.7173 0.00196857ZM16.0725 8.0017C15.0126 7.9867 13.9602 8.18253 12.9766 8.57778C11.993 8.97304 11.0977 9.55985 10.3429 10.3041C9.58801 11.0484 8.9886 11.9352 8.57948 12.9131C8.17035 13.8911 7.95966 14.9406 7.95966 16.0006C7.95966 17.0607 8.17035 18.1102 8.57948 19.0881C8.9886 20.066 9.58801 20.9529 10.3429 21.6971C11.0977 22.4414 11.993 23.0282 12.9766 23.4235C13.9602 23.8187 15.0126 24.0145 16.0725 23.9996C18.1942 23.9996 20.2289 23.1567 21.7292 21.6565C23.2294 20.1562 24.0723 18.1215 24.0723 15.9998C24.0723 13.8782 23.2294 11.8434 21.7292 10.3432C20.2289 8.84292 18.1942 8.0017 16.0725 8.0017ZM16.0725 11.2016C16.7101 11.1898 17.3437 11.3053 17.9361 11.5411C18.5286 11.777 19.0682 12.1285 19.5233 12.5752C19.9783 13.0219 20.3399 13.5548 20.5867 14.1428C20.8335 14.7308 20.9607 15.3621 20.9608 15.9998C20.9609 16.6375 20.8339 17.2688 20.5873 17.8569C20.3407 18.445 19.9793 18.978 19.5244 19.4249C19.0695 19.8717 18.53 20.2235 17.9376 20.4595C17.3452 20.6956 16.7117 20.8112 16.0741 20.7997C14.8011 20.7997 13.5803 20.294 12.6801 19.3938C11.78 18.4937 11.2743 17.2728 11.2743 15.9998C11.2743 14.7268 11.78 13.506 12.6801 12.6058C13.5803 11.7057 14.8011 11.2 16.0741 11.2L16.0725 11.2016ZM24.4722 5.60178C23.9561 5.62244 23.4679 5.84201 23.1101 6.21451C22.7522 6.58701 22.5523 7.08354 22.5523 7.60011C22.5523 8.11668 22.7522 8.61321 23.1101 8.98571C23.4679 9.35821 23.9561 9.57778 24.4722 9.59844C25.0027 9.59844 25.5113 9.38774 25.8864 9.01268C26.2615 8.63762 26.4722 8.12893 26.4722 7.59851C26.4722 7.0681 26.2615 6.5594 25.8864 6.18434C25.5113 5.80929 25.0027 5.59858 24.4722 5.59858V5.60178Z" fill="#285A0F"/>
</svg>
