<svg width="33" height="32" viewBox="0 0 33 32" fill="none" xmlns="http://www.w3.org/2000/svg">
<path d="M28.5166 0C29.4596 0 30.3639 0.374602 31.0307 1.0414C31.6975 1.70819 32.0721 2.61256 32.0721 3.55556V28.4444C32.0721 29.3874 31.6975 30.2918 31.0307 30.9586C30.3639 31.6254 29.4596 32 28.5166 32H3.6277C2.68471 32 1.78034 31.6254 1.11354 30.9586C0.446745 30.2918 0.0721436 29.3874 0.0721436 28.4444V3.55556C0.0721436 2.61256 0.446745 1.70819 1.11354 1.0414C1.78034 0.374602 2.68471 0 3.6277 0H28.5166ZM27.6277 27.5556V18.1333C27.6277 16.5963 27.0171 15.1221 25.9302 14.0353C24.8433 12.9484 23.3692 12.3378 21.8321 12.3378C20.321 12.3378 18.561 13.2622 17.7077 14.6489V12.6756H12.7477V27.5556H17.7077V18.7911C17.7077 17.4222 18.8099 16.3022 20.1788 16.3022C20.8389 16.3022 21.472 16.5644 21.9387 17.0312C22.4055 17.498 22.6677 18.131 22.6677 18.7911V27.5556H27.6277ZM6.96992 9.88445C7.76203 9.88445 8.52171 9.56978 9.08181 9.00967C9.64192 8.44956 9.95659 7.68989 9.95659 6.89778C9.95659 5.24444 8.62325 3.89333 6.96992 3.89333C6.17309 3.89333 5.4089 4.20987 4.84546 4.77331C4.28202 5.33676 3.96548 6.10095 3.96548 6.89778C3.96548 8.55111 5.31659 9.88445 6.96992 9.88445ZM9.44103 27.5556V12.6756H4.51659V27.5556H9.44103Z" fill="#285A0F"/>
</svg>
