<svg width="45" height="40" viewBox="0 0 45 40" fill="none" xmlns="http://www.w3.org/2000/svg">
<path d="M15 40C16.841 40 18.3334 38.5076 18.3334 36.6667C18.3334 34.8257 16.841 33.3333 15 33.3333C13.1591 33.3333 11.6667 34.8257 11.6667 36.6667C11.6667 38.5076 13.1591 40 15 40Z" fill="#000019"/>
<path d="M38.3333 40C40.1743 40 41.6667 38.5076 41.6667 36.6667C41.6667 34.8257 40.1743 33.3333 38.3333 33.3333C36.4924 33.3333 35 34.8257 35 36.6667C35 38.5076 36.4924 40 38.3333 40Z" fill="#000019"/>
<path d="M44.25 5.91458C44.0158 5.62818 43.7209 5.3975 43.3865 5.23931C43.052 5.08111 42.6866 4.99936 42.3167 5H10.6135L9.975 1.37708C9.90691 0.991175 9.70502 0.641599 9.4048 0.389758C9.10457 0.137917 8.7252 -8.23349e-05 8.33333 3.68544e-08H1.66667C1.22464 3.68544e-08 0.800716 0.175595 0.488155 0.488156C0.175595 0.800716 0 1.22464 0 1.66667C0 2.10869 0.175595 2.53262 0.488155 2.84518C0.800716 3.15774 1.22464 3.33333 1.66667 3.33333H6.93542L11.6917 30.2896C11.7598 30.6755 11.9616 31.0251 12.2619 31.2769C12.5621 31.5287 12.9415 31.6667 13.3333 31.6667H40C40.442 31.6667 40.866 31.4911 41.1785 31.1785C41.4911 30.866 41.6667 30.442 41.6667 30C41.6667 29.558 41.4911 29.134 41.1785 28.8215C40.866 28.5089 40.442 28.3333 40 28.3333H14.7312L14.1437 25H39.3167C39.8947 24.9993 40.4546 24.7989 40.9019 24.4327C41.3491 24.0665 41.6561 23.5571 41.7708 22.9906L44.7708 7.99063C44.8431 7.62761 44.8339 7.25307 44.7438 6.89405C44.6538 6.53503 44.4851 6.20049 44.25 5.91458Z" fill="#000019"/>
</svg>
