<svg width="40" height="40" viewBox="0 0 40 40" fill="none" xmlns="http://www.w3.org/2000/svg">
<path d="M29.4737 9.81147e-09C31.0847 -8.97299e-05 32.6348 0.615421 33.8069 1.7206C34.979 2.82577 35.6844 4.33707 35.7789 5.94526L35.7895 6.31579V27.3684H37.3684C38.7305 27.3684 39.8526 28.4042 39.9874 29.7305L40 30V33.6842C40.0001 35.2952 39.3846 36.8453 38.2794 38.0174C37.1742 39.1895 35.6629 39.895 34.0547 39.9895L33.6842 40H12.6316C11.0206 40.0001 9.4705 39.3846 8.2984 38.2794C7.1263 37.1742 6.42083 35.6629 6.32632 34.0547L6.31579 33.6842V12.6316H2.63158C1.98009 12.6319 1.35165 12.3905 0.867862 11.9542C0.384077 11.5178 0.0793442 10.9175 0.0126317 10.2695L9.81147e-09 10V6.31579C-8.97299e-05 4.70482 0.615421 3.15471 1.7206 1.98261C2.82577 0.810512 4.33707 0.105037 5.94526 0.0105266L6.31579 9.81147e-09H29.4737ZM35.7895 31.5789H16.8421V33.6842C16.8421 34.4211 16.7158 35.1305 16.4842 35.7895H33.6842C34.2426 35.7895 34.778 35.5677 35.1729 35.1729C35.5677 34.778 35.7895 34.2426 35.7895 33.6842V31.5789ZM21.0526 18.9474H16.8421C16.3055 18.948 15.7894 19.1534 15.3992 19.5218C15.009 19.8901 14.7742 20.3936 14.7428 20.9293C14.7113 21.4649 14.8856 21.9924 15.23 22.4039C15.5744 22.8153 16.063 23.0798 16.5958 23.1432L16.8421 23.1579H21.0526C21.5892 23.1573 22.1053 22.9518 22.4955 22.5835C22.8857 22.2151 23.1205 21.7117 23.1519 21.176C23.1834 20.6403 23.0091 20.1129 22.6647 19.7014C22.3203 19.2899 21.8318 19.0255 21.2989 18.9621L21.0526 18.9474ZM25.2632 10.5263H16.8421C16.2838 10.5263 15.7483 10.7481 15.3535 11.1429C14.9586 11.5377 14.7368 12.0732 14.7368 12.6316C14.7368 13.1899 14.9586 13.7254 15.3535 14.1202C15.7483 14.515 16.2838 14.7368 16.8421 14.7368H25.2632C25.8215 14.7368 26.357 14.515 26.7518 14.1202C27.1466 13.7254 27.3684 13.1899 27.3684 12.6316C27.3684 12.0732 27.1466 11.5377 26.7518 11.1429C26.357 10.7481 25.8215 10.5263 25.2632 10.5263ZM6.31579 4.21053C5.75744 4.21053 5.22196 4.43233 4.82714 4.82714C4.43233 5.22196 4.21053 5.75744 4.21053 6.31579V8.42105H6.31579V4.21053Z" fill="#000019"/>
</svg>
