<svg width="29" height="20" viewBox="0 0 29 20" fill="none" xmlns="http://www.w3.org/2000/svg">
<path fill-rule="evenodd" clip-rule="evenodd" d="M27.3954 0.616124C27.7894 1.0103 28.0108 1.54484 28.0108 2.10221C28.0108 2.65957 27.7894 3.19411 27.3954 3.58829L11.6405 19.3431C11.4323 19.5514 11.1851 19.7166 10.9131 19.8293C10.641 19.942 10.3494 20 10.0549 20C9.76047 20 9.46888 19.942 9.19682 19.8293C8.92477 19.7166 8.67758 19.5514 8.46938 19.3431L0.641702 11.5169C0.440944 11.323 0.280812 11.091 0.170651 10.8346C0.0604897 10.5781 0.00250463 10.3023 7.93626e-05 10.0232C-0.00234591 9.74411 0.0508373 9.46733 0.156525 9.20901C0.262213 8.95068 0.41829 8.716 0.615648 8.51864C0.813006 8.32128 1.04769 8.1652 1.30602 8.05952C1.56434 7.95383 1.84112 7.90064 2.12022 7.90307C2.39931 7.90549 2.67513 7.96348 2.93158 8.07364C3.18803 8.1838 3.41996 8.34393 3.61386 8.54469L10.0542 14.9851L24.4218 0.616124C24.617 0.420797 24.8488 0.265848 25.1039 0.16013C25.359 0.0544132 25.6324 0 25.9086 0C26.1847 0 26.4582 0.0544132 26.7133 0.16013C26.9684 0.265848 27.2002 0.420797 27.3954 0.616124Z" fill="white"/>
</svg>
