<svg width="32" height="32" viewBox="0 0 32 32" fill="none" xmlns="http://www.w3.org/2000/svg">
<path d="M16 0C24.8368 0 32 7.1632 32 16C32 24.8368 24.8368 32 16 32C7.1632 32 0 24.8368 0 16C0 7.1632 7.1632 0 16 0ZM16 6.4C15.5757 6.4 15.1687 6.56857 14.8686 6.86863C14.5686 7.16869 14.4 7.57565 14.4 8V16C14.4001 16.4243 14.5687 16.8312 14.8688 17.1312L19.6688 21.9312C19.9706 22.2227 20.3747 22.3839 20.7942 22.3803C21.2138 22.3766 21.6151 22.2084 21.9117 21.9117C22.2084 21.6151 22.3766 21.2138 22.3803 20.7942C22.3839 20.3747 22.2227 19.9706 21.9312 19.6688L17.6 15.3376V8C17.6 7.57565 17.4314 7.16869 17.1314 6.86863C16.8313 6.56857 16.4243 6.4 16 6.4Z" fill="#000019"/>
</svg>
