<svg width="150" height="150" viewBox="0 0 150 150" fill="none" xmlns="http://www.w3.org/2000/svg">
<rect width="150" height="150" rx="75" fill="white"/>
<path d="M31.608 50.688H45.176L64.44 82.176H64.568V50.688H74.552V96H61.496L41.72 63.744H41.592V96H31.608V50.688ZM113.428 62.464C112.446 61.2693 111.23 60.352 109.78 59.712C108.372 59.072 106.729 58.752 104.852 58.752C102.974 58.752 101.225 59.1147 99.6035 59.84C98.0248 60.5653 96.6382 61.5893 95.4435 62.912C94.2915 64.192 93.3742 65.728 92.6915 67.52C92.0515 69.312 91.7315 71.2533 91.7315 73.344C91.7315 75.4773 92.0515 77.44 92.6915 79.232C93.3742 80.9813 94.2915 82.5173 95.4435 83.84C96.5955 85.12 97.9395 86.1227 99.4755 86.848C101.054 87.5733 102.74 87.936 104.532 87.936C106.58 87.936 108.393 87.5093 109.972 86.656C111.55 85.8027 112.852 84.608 113.876 83.072L122.196 89.28C120.276 91.968 117.844 93.952 114.9 95.232C111.956 96.512 108.926 97.152 105.812 97.152C102.27 97.152 99.0062 96.5973 96.0195 95.488C93.0328 94.3787 90.4515 92.8 88.2755 90.752C86.0995 88.6613 84.3928 86.144 83.1555 83.2C81.9608 80.256 81.3635 76.9707 81.3635 73.344C81.3635 69.7173 81.9608 66.432 83.1555 63.488C84.3928 60.544 86.0995 58.048 88.2755 56C90.4515 53.9093 93.0328 52.3093 96.0195 51.2C99.0062 50.0907 102.27 49.536 105.812 49.536C107.092 49.536 108.414 49.664 109.78 49.92C111.188 50.1333 112.553 50.496 113.876 51.008C115.241 51.52 116.542 52.2027 117.78 53.056C119.017 53.9093 120.126 54.9547 121.108 56.192L113.428 62.464Z" fill="#285A0F"/>
</svg>
