<svg width="80" height="80" viewBox="0 0 80 80" fill="none" xmlns="http://www.w3.org/2000/svg">
<path d="M79.7595 3.36294C79.7098 2.54747 79.3494 1.77788 78.7467 1.20028C78.144 0.622671 77.341 0.277269 76.4902 0.229647C43.3926 -1.63283 16.8815 7.91704 5.57802 25.8335C1.6599 31.9622 -0.270856 39.068 0.0306112 46.2499C0.227389 50.8425 1.20237 55.3738 2.91735 59.6664C3.01813 59.9305 3.18702 60.166 3.40831 60.3507C3.62959 60.5355 3.89607 60.6636 4.18292 60.7231C4.46977 60.7825 4.76766 60.7715 5.04885 60.6909C5.33003 60.6103 5.58536 60.4628 5.79105 60.2622L42.7448 24.3043C43.068 23.9946 43.4516 23.749 43.8738 23.5814C44.296 23.4138 44.7485 23.3275 45.2055 23.3275C45.6625 23.3275 46.115 23.4138 46.5372 23.5814C46.9594 23.749 47.3431 23.9946 47.6662 24.3043C47.9893 24.614 48.2457 24.9817 48.4206 25.3863C48.5954 25.791 48.6855 26.2246 48.6855 26.6626C48.6855 27.1006 48.5954 27.5343 48.4206 27.9389C48.2457 28.3436 47.9893 28.7112 47.6662 29.0209L7.28225 68.3079L1.11314 74.2203C0.471559 74.819 0.0885291 75.6271 0.0401987 76.484C-0.0081318 77.3409 0.281777 78.1838 0.852289 78.8453C1.16473 79.192 1.54841 79.4733 1.97936 79.6716C2.41032 79.8699 2.8793 79.9809 3.35703 79.9978C3.83475 80.0146 4.31097 79.9368 4.75594 79.7693C5.20091 79.6019 5.60508 79.3483 5.94322 79.0244L13.2427 72.0287C19.39 74.8786 25.5939 76.4328 31.7456 76.6411C32.2297 76.6578 32.7122 76.6661 33.1934 76.6661C40.1989 76.6833 47.0716 74.8339 53.0441 71.3245C71.7383 60.4913 81.7072 35.0875 79.7595 3.36294Z" fill="#285A0F"/>
</svg>
