<svg width="80" height="80" viewBox="0 0 80 80" fill="none" xmlns="http://www.w3.org/2000/svg">
<path fill-rule="evenodd" clip-rule="evenodd" d="M38 4.84077e-08C41.9321 0.000336658 45.7561 1.43069 48.8879 4.07262C52.0197 6.71455 54.2872 10.4228 55.344 14.6311L55.552 15.5422L63.032 13.4667C63.5787 13.3155 64.148 13.2943 64.7026 13.4045C65.2572 13.5148 65.7846 13.754 66.2503 14.1065C66.7159 14.4589 67.1092 14.9167 67.4046 15.4498C67.6999 15.9829 67.8905 16.5793 67.964 17.2L68 17.7778V25.8222C70.2551 28.2246 72.1031 31.0578 73.456 34.1867L74.008 35.5556H76C76.9797 35.5557 77.9253 35.9554 78.6575 36.6787C79.3896 37.4021 79.8574 38.3989 79.972 39.48L80 40V53.3333C80.0001 54.0649 79.8377 54.7851 79.5272 55.4301C79.2167 56.0752 78.7677 56.6251 78.22 57.0311L77.788 57.3067L73.116 59.9067C71.2034 64.0182 68.4329 67.5613 65.036 70.24L64 71.0133V75.5556C63.9999 76.6441 63.6402 77.6948 62.9891 78.5083C62.3381 79.3218 61.441 79.8415 60.468 79.9689L60 80H48C47.0203 79.9999 46.0746 79.6002 45.3425 78.8768C44.6104 78.1535 44.1426 77.1567 44.028 76.0756L44 75.5556H40C39.9999 76.6441 39.6402 77.6948 38.9891 78.5083C38.3381 79.3218 37.441 79.8415 36.468 79.9689L36 80H24C23.0203 79.9999 22.0747 79.6002 21.3425 78.8768C20.6104 78.1535 20.1426 77.1567 20.028 76.0756L20 75.5556V71.0133C17.1103 68.9606 14.6142 66.2937 12.6551 63.1658C10.6959 60.0378 9.31242 56.5106 8.584 52.7867C6.22531 52.0067 4.13926 50.4403 2.60821 48.2995C1.07717 46.1588 0.175059 43.547 0.0240002 40.8178L0 40V37.7778C0.00113083 36.645 0.391517 35.5554 1.09139 34.7317C1.79127 33.908 2.74781 33.4123 3.76558 33.3459C4.78335 33.2795 5.78552 33.6474 6.56733 34.3745C7.34914 35.1016 7.85159 36.1329 7.972 37.2578L8 37.7778V40C8 40.6578 8.128 41.2844 8.36 41.8444C8.97054 37.8432 10.3325 34.0296 12.3573 30.6519C14.3821 27.2742 17.0243 24.408 20.112 22.24C19.8282 19.4422 20.0792 16.6093 20.8487 13.9266C21.6182 11.244 22.8888 8.77219 24.5774 6.67282C26.266 4.57345 28.3344 2.89387 30.6475 1.74398C32.9605 0.594092 35.466 -0.000195834 38 4.84077e-08ZM56 35.5556C54.9391 35.5556 53.9217 36.0238 53.1716 36.8573C52.4214 37.6908 52 38.8213 52 40C52 41.1787 52.4214 42.3092 53.1716 43.1427C53.9217 43.9762 54.9391 44.4444 56 44.4444C57.0609 44.4444 58.0783 43.9762 58.8284 43.1427C59.5786 42.3092 60 41.1787 60 40C60 38.8213 59.5786 37.6908 58.8284 36.8573C58.0783 36.0238 57.0609 35.5556 56 35.5556ZM38 8.88889C35.5772 8.88888 33.2367 9.86622 31.4136 11.6393C29.5905 13.4124 28.4088 15.8606 28.088 18.5289C30.0264 18.0287 32.01 17.7767 34 17.7778H47.508L47.788 17.7022C47.3137 15.2087 46.0822 12.9722 44.3002 11.3676C42.5181 9.76295 40.2938 8.88783 38 8.88889Z" fill="#285A0F"/>
</svg>
